<mxfile host="app.diagrams.net" modified="2023-12-25T13:49:29.069Z" agent="Mozilla/5.0 (Windows NT 10.0; Win64; x64) AppleWebKit/537.36 (KHTML, like Gecko) Chrome/119.0.0.0 Safari/537.36 OPR/105.0.0.0" etag="sq6Fl2vWMdSNQhXCJvE5" version="22.1.11" type="device">
  <diagram name="Страница — 1" id="UsGvg6COvlgF768bDoBs">
    <mxGraphModel dx="1469" dy="1816" grid="1" gridSize="10" guides="1" tooltips="1" connect="1" arrows="1" fold="1" page="1" pageScale="1" pageWidth="827" pageHeight="1169" math="0" shadow="0">
      <root>
        <mxCell id="0" />
        <mxCell id="1" parent="0" />
        <mxCell id="hwB_FgqObgopXVhRAvoL-27" value="Клиент" style="swimlane;whiteSpace=wrap;html=1;" vertex="1" parent="1">
          <mxGeometry x="560" width="200" height="240" as="geometry" />
        </mxCell>
        <mxCell id="hwB_FgqObgopXVhRAvoL-28" value="Код Пользователя PK FK" style="text;html=1;align=center;verticalAlign=middle;resizable=0;points=[];autosize=1;strokeColor=none;fillColor=none;" vertex="1" parent="hwB_FgqObgopXVhRAvoL-27">
          <mxGeometry y="30" width="160" height="30" as="geometry" />
        </mxCell>
        <mxCell id="hwB_FgqObgopXVhRAvoL-38" value="Имя" style="text;html=1;align=center;verticalAlign=middle;resizable=0;points=[];autosize=1;strokeColor=none;fillColor=none;" vertex="1" parent="hwB_FgqObgopXVhRAvoL-27">
          <mxGeometry y="60" width="50" height="30" as="geometry" />
        </mxCell>
        <mxCell id="hwB_FgqObgopXVhRAvoL-39" value="Фамилия" style="text;html=1;align=center;verticalAlign=middle;resizable=0;points=[];autosize=1;strokeColor=none;fillColor=none;" vertex="1" parent="hwB_FgqObgopXVhRAvoL-27">
          <mxGeometry y="90" width="70" height="30" as="geometry" />
        </mxCell>
        <mxCell id="hwB_FgqObgopXVhRAvoL-40" value="Отчество" style="text;html=1;align=center;verticalAlign=middle;resizable=0;points=[];autosize=1;strokeColor=none;fillColor=none;" vertex="1" parent="hwB_FgqObgopXVhRAvoL-27">
          <mxGeometry y="120" width="80" height="30" as="geometry" />
        </mxCell>
        <mxCell id="hwB_FgqObgopXVhRAvoL-41" value="Адрес" style="text;html=1;align=center;verticalAlign=middle;resizable=0;points=[];autosize=1;strokeColor=none;fillColor=none;" vertex="1" parent="hwB_FgqObgopXVhRAvoL-27">
          <mxGeometry y="150" width="60" height="30" as="geometry" />
        </mxCell>
        <mxCell id="hwB_FgqObgopXVhRAvoL-42" value="Телефон" style="text;html=1;align=center;verticalAlign=middle;resizable=0;points=[];autosize=1;strokeColor=none;fillColor=none;" vertex="1" parent="hwB_FgqObgopXVhRAvoL-27">
          <mxGeometry y="180" width="70" height="30" as="geometry" />
        </mxCell>
        <mxCell id="hwB_FgqObgopXVhRAvoL-43" value="Дата рождения" style="text;html=1;align=center;verticalAlign=middle;resizable=0;points=[];autosize=1;strokeColor=none;fillColor=none;" vertex="1" parent="hwB_FgqObgopXVhRAvoL-27">
          <mxGeometry y="210" width="110" height="30" as="geometry" />
        </mxCell>
        <mxCell id="hwB_FgqObgopXVhRAvoL-44" value="Продажа абонементов" style="swimlane;whiteSpace=wrap;html=1;" vertex="1" parent="1">
          <mxGeometry x="880" y="190" width="200" height="210" as="geometry" />
        </mxCell>
        <mxCell id="hwB_FgqObgopXVhRAvoL-45" value="Код Карты Клиента PK" style="text;html=1;align=center;verticalAlign=middle;resizable=0;points=[];autosize=1;strokeColor=none;fillColor=none;" vertex="1" parent="hwB_FgqObgopXVhRAvoL-44">
          <mxGeometry y="30" width="150" height="30" as="geometry" />
        </mxCell>
        <mxCell id="hwB_FgqObgopXVhRAvoL-46" value="Код Абонемента FK" style="text;html=1;align=center;verticalAlign=middle;resizable=0;points=[];autosize=1;strokeColor=none;fillColor=none;" vertex="1" parent="hwB_FgqObgopXVhRAvoL-44">
          <mxGeometry y="60" width="130" height="30" as="geometry" />
        </mxCell>
        <mxCell id="hwB_FgqObgopXVhRAvoL-47" value="Код Клиента FK" style="text;html=1;align=center;verticalAlign=middle;resizable=0;points=[];autosize=1;strokeColor=none;fillColor=none;" vertex="1" parent="hwB_FgqObgopXVhRAvoL-44">
          <mxGeometry y="90" width="110" height="30" as="geometry" />
        </mxCell>
        <mxCell id="hwB_FgqObgopXVhRAvoL-48" value="Дата Начала" style="text;html=1;align=center;verticalAlign=middle;resizable=0;points=[];autosize=1;strokeColor=none;fillColor=none;" vertex="1" parent="hwB_FgqObgopXVhRAvoL-44">
          <mxGeometry y="120" width="100" height="30" as="geometry" />
        </mxCell>
        <mxCell id="hwB_FgqObgopXVhRAvoL-49" value="Дата Окончания" style="text;html=1;align=center;verticalAlign=middle;resizable=0;points=[];autosize=1;strokeColor=none;fillColor=none;" vertex="1" parent="hwB_FgqObgopXVhRAvoL-44">
          <mxGeometry y="150" width="110" height="30" as="geometry" />
        </mxCell>
        <mxCell id="hwB_FgqObgopXVhRAvoL-50" value="Оставшиеся Посещения" style="text;html=1;align=center;verticalAlign=middle;resizable=0;points=[];autosize=1;strokeColor=none;fillColor=none;" vertex="1" parent="hwB_FgqObgopXVhRAvoL-44">
          <mxGeometry y="180" width="160" height="30" as="geometry" />
        </mxCell>
        <mxCell id="hwB_FgqObgopXVhRAvoL-52" value="Абонементы" style="swimlane;whiteSpace=wrap;html=1;" vertex="1" parent="1">
          <mxGeometry x="510" y="350" width="200" height="210" as="geometry" />
        </mxCell>
        <mxCell id="hwB_FgqObgopXVhRAvoL-53" value="Код Абонемента PK" style="text;html=1;align=center;verticalAlign=middle;resizable=0;points=[];autosize=1;strokeColor=none;fillColor=none;" vertex="1" parent="hwB_FgqObgopXVhRAvoL-52">
          <mxGeometry y="30" width="140" height="30" as="geometry" />
        </mxCell>
        <mxCell id="hwB_FgqObgopXVhRAvoL-54" value="Код тренировки FK" style="text;html=1;align=center;verticalAlign=middle;resizable=0;points=[];autosize=1;strokeColor=none;fillColor=none;" vertex="1" parent="hwB_FgqObgopXVhRAvoL-52">
          <mxGeometry y="60" width="130" height="30" as="geometry" />
        </mxCell>
        <mxCell id="hwB_FgqObgopXVhRAvoL-55" value="Код Услуги FK" style="text;html=1;align=center;verticalAlign=middle;resizable=0;points=[];autosize=1;strokeColor=none;fillColor=none;" vertex="1" parent="hwB_FgqObgopXVhRAvoL-52">
          <mxGeometry y="90" width="100" height="30" as="geometry" />
        </mxCell>
        <mxCell id="hwB_FgqObgopXVhRAvoL-56" value="Цена" style="text;html=1;align=center;verticalAlign=middle;resizable=0;points=[];autosize=1;strokeColor=none;fillColor=none;" vertex="1" parent="hwB_FgqObgopXVhRAvoL-52">
          <mxGeometry y="120" width="50" height="30" as="geometry" />
        </mxCell>
        <mxCell id="hwB_FgqObgopXVhRAvoL-57" value="Количество посещений" style="text;html=1;align=center;verticalAlign=middle;resizable=0;points=[];autosize=1;strokeColor=none;fillColor=none;" vertex="1" parent="hwB_FgqObgopXVhRAvoL-52">
          <mxGeometry y="150" width="150" height="30" as="geometry" />
        </mxCell>
        <mxCell id="hwB_FgqObgopXVhRAvoL-58" value="Количество дней" style="text;html=1;align=center;verticalAlign=middle;resizable=0;points=[];autosize=1;strokeColor=none;fillColor=none;" vertex="1" parent="hwB_FgqObgopXVhRAvoL-52">
          <mxGeometry y="180" width="120" height="30" as="geometry" />
        </mxCell>
        <mxCell id="hwB_FgqObgopXVhRAvoL-59" value="Учёт посещений" style="swimlane;whiteSpace=wrap;html=1;" vertex="1" parent="1">
          <mxGeometry x="880" y="480" width="200" height="120" as="geometry" />
        </mxCell>
        <mxCell id="hwB_FgqObgopXVhRAvoL-60" value="Код посещения PK" style="text;html=1;align=center;verticalAlign=middle;resizable=0;points=[];autosize=1;strokeColor=none;fillColor=none;" vertex="1" parent="hwB_FgqObgopXVhRAvoL-59">
          <mxGeometry y="30" width="130" height="30" as="geometry" />
        </mxCell>
        <mxCell id="hwB_FgqObgopXVhRAvoL-61" value="Код Расписания FK" style="text;html=1;align=center;verticalAlign=middle;resizable=0;points=[];autosize=1;strokeColor=none;fillColor=none;" vertex="1" parent="hwB_FgqObgopXVhRAvoL-59">
          <mxGeometry y="60" width="130" height="30" as="geometry" />
        </mxCell>
        <mxCell id="hwB_FgqObgopXVhRAvoL-62" value="Код Карты Клиента FK" style="text;html=1;align=center;verticalAlign=middle;resizable=0;points=[];autosize=1;strokeColor=none;fillColor=none;" vertex="1" parent="hwB_FgqObgopXVhRAvoL-59">
          <mxGeometry y="90" width="150" height="30" as="geometry" />
        </mxCell>
        <mxCell id="hwB_FgqObgopXVhRAvoL-66" value="Расписание" style="swimlane;whiteSpace=wrap;html=1;" vertex="1" parent="1">
          <mxGeometry x="870" y="680" width="200" height="250" as="geometry" />
        </mxCell>
        <mxCell id="hwB_FgqObgopXVhRAvoL-67" value="Код Расписания PK" style="text;html=1;align=center;verticalAlign=middle;resizable=0;points=[];autosize=1;strokeColor=none;fillColor=none;" vertex="1" parent="hwB_FgqObgopXVhRAvoL-66">
          <mxGeometry y="29" width="130" height="30" as="geometry" />
        </mxCell>
        <mxCell id="hwB_FgqObgopXVhRAvoL-68" value="Дата Записи" style="text;html=1;align=center;verticalAlign=middle;resizable=0;points=[];autosize=1;strokeColor=none;fillColor=none;" vertex="1" parent="hwB_FgqObgopXVhRAvoL-66">
          <mxGeometry y="60" width="90" height="30" as="geometry" />
        </mxCell>
        <mxCell id="hwB_FgqObgopXVhRAvoL-69" value="Время Начала" style="text;html=1;align=center;verticalAlign=middle;resizable=0;points=[];autosize=1;strokeColor=none;fillColor=none;" vertex="1" parent="hwB_FgqObgopXVhRAvoL-66">
          <mxGeometry y="90" width="100" height="30" as="geometry" />
        </mxCell>
        <mxCell id="hwB_FgqObgopXVhRAvoL-70" value="Время Окончания" style="text;html=1;align=center;verticalAlign=middle;resizable=0;points=[];autosize=1;strokeColor=none;fillColor=none;" vertex="1" parent="hwB_FgqObgopXVhRAvoL-66">
          <mxGeometry y="120" width="120" height="30" as="geometry" />
        </mxCell>
        <mxCell id="hwB_FgqObgopXVhRAvoL-71" value="Код Сотрудника FK" style="text;html=1;align=center;verticalAlign=middle;resizable=0;points=[];autosize=1;strokeColor=none;fillColor=none;" vertex="1" parent="hwB_FgqObgopXVhRAvoL-66">
          <mxGeometry y="150" width="130" height="30" as="geometry" />
        </mxCell>
        <mxCell id="hwB_FgqObgopXVhRAvoL-72" value="Код Услуги FK" style="text;html=1;align=center;verticalAlign=middle;resizable=0;points=[];autosize=1;strokeColor=none;fillColor=none;" vertex="1" parent="hwB_FgqObgopXVhRAvoL-66">
          <mxGeometry y="180" width="100" height="30" as="geometry" />
        </mxCell>
        <mxCell id="hwB_FgqObgopXVhRAvoL-73" value="Код Тренировки FK" style="text;html=1;align=center;verticalAlign=middle;resizable=0;points=[];autosize=1;strokeColor=none;fillColor=none;" vertex="1" parent="hwB_FgqObgopXVhRAvoL-66">
          <mxGeometry y="210" width="130" height="30" as="geometry" />
        </mxCell>
        <mxCell id="hwB_FgqObgopXVhRAvoL-74" value="Сотрудники" style="swimlane;whiteSpace=wrap;html=1;" vertex="1" parent="1">
          <mxGeometry x="1290" y="140" width="200" height="310" as="geometry" />
        </mxCell>
        <mxCell id="hwB_FgqObgopXVhRAvoL-75" value="Код Сотрудника PK FK" style="text;html=1;align=center;verticalAlign=middle;resizable=0;points=[];autosize=1;strokeColor=none;fillColor=none;" vertex="1" parent="hwB_FgqObgopXVhRAvoL-74">
          <mxGeometry y="29" width="150" height="30" as="geometry" />
        </mxCell>
        <mxCell id="hwB_FgqObgopXVhRAvoL-76" value="Роль FK" style="text;html=1;align=center;verticalAlign=middle;resizable=0;points=[];autosize=1;strokeColor=none;fillColor=none;" vertex="1" parent="hwB_FgqObgopXVhRAvoL-74">
          <mxGeometry y="59" width="70" height="30" as="geometry" />
        </mxCell>
        <mxCell id="hwB_FgqObgopXVhRAvoL-77" value="Имя" style="text;html=1;align=center;verticalAlign=middle;resizable=0;points=[];autosize=1;strokeColor=none;fillColor=none;" vertex="1" parent="hwB_FgqObgopXVhRAvoL-74">
          <mxGeometry y="89.5" width="50" height="30" as="geometry" />
        </mxCell>
        <mxCell id="hwB_FgqObgopXVhRAvoL-78" value="Фамилия" style="text;html=1;align=center;verticalAlign=middle;resizable=0;points=[];autosize=1;strokeColor=none;fillColor=none;" vertex="1" parent="hwB_FgqObgopXVhRAvoL-74">
          <mxGeometry y="119.5" width="70" height="30" as="geometry" />
        </mxCell>
        <mxCell id="hwB_FgqObgopXVhRAvoL-79" value="Отчество" style="text;html=1;align=center;verticalAlign=middle;resizable=0;points=[];autosize=1;strokeColor=none;fillColor=none;" vertex="1" parent="hwB_FgqObgopXVhRAvoL-74">
          <mxGeometry y="149.5" width="80" height="30" as="geometry" />
        </mxCell>
        <mxCell id="hwB_FgqObgopXVhRAvoL-80" value="Адрес" style="text;html=1;align=center;verticalAlign=middle;resizable=0;points=[];autosize=1;strokeColor=none;fillColor=none;" vertex="1" parent="hwB_FgqObgopXVhRAvoL-74">
          <mxGeometry y="179.5" width="60" height="30" as="geometry" />
        </mxCell>
        <mxCell id="hwB_FgqObgopXVhRAvoL-81" value="Дата Рождения" style="text;html=1;align=center;verticalAlign=middle;resizable=0;points=[];autosize=1;strokeColor=none;fillColor=none;" vertex="1" parent="hwB_FgqObgopXVhRAvoL-74">
          <mxGeometry y="209.5" width="110" height="30" as="geometry" />
        </mxCell>
        <mxCell id="hwB_FgqObgopXVhRAvoL-82" value="Телефон" style="text;html=1;align=center;verticalAlign=middle;resizable=0;points=[];autosize=1;strokeColor=none;fillColor=none;" vertex="1" parent="hwB_FgqObgopXVhRAvoL-74">
          <mxGeometry y="240" width="70" height="30" as="geometry" />
        </mxCell>
        <mxCell id="hwB_FgqObgopXVhRAvoL-83" value="Оклад" style="text;html=1;align=center;verticalAlign=middle;resizable=0;points=[];autosize=1;strokeColor=none;fillColor=none;" vertex="1" parent="hwB_FgqObgopXVhRAvoL-74">
          <mxGeometry y="270" width="60" height="30" as="geometry" />
        </mxCell>
        <mxCell id="hwB_FgqObgopXVhRAvoL-84" value="Услуги" style="swimlane;whiteSpace=wrap;html=1;" vertex="1" parent="1">
          <mxGeometry x="520" y="610" width="200" height="100" as="geometry" />
        </mxCell>
        <mxCell id="hwB_FgqObgopXVhRAvoL-85" value="Код Услуги PK" style="text;html=1;align=center;verticalAlign=middle;resizable=0;points=[];autosize=1;strokeColor=none;fillColor=none;" vertex="1" parent="hwB_FgqObgopXVhRAvoL-84">
          <mxGeometry y="30" width="100" height="30" as="geometry" />
        </mxCell>
        <mxCell id="hwB_FgqObgopXVhRAvoL-86" value="Название Услуги" style="text;html=1;align=center;verticalAlign=middle;resizable=0;points=[];autosize=1;strokeColor=none;fillColor=none;" vertex="1" parent="hwB_FgqObgopXVhRAvoL-84">
          <mxGeometry y="60" width="120" height="30" as="geometry" />
        </mxCell>
        <mxCell id="hwB_FgqObgopXVhRAvoL-88" value="Тренировки" style="swimlane;whiteSpace=wrap;html=1;" vertex="1" parent="1">
          <mxGeometry x="520" y="740" width="200" height="100" as="geometry" />
        </mxCell>
        <mxCell id="hwB_FgqObgopXVhRAvoL-89" value="Код Тренировки PK" style="text;html=1;align=center;verticalAlign=middle;resizable=0;points=[];autosize=1;strokeColor=none;fillColor=none;" vertex="1" parent="hwB_FgqObgopXVhRAvoL-88">
          <mxGeometry y="30" width="130" height="30" as="geometry" />
        </mxCell>
        <mxCell id="hwB_FgqObgopXVhRAvoL-90" value="Название Тренировки" style="text;html=1;align=center;verticalAlign=middle;resizable=0;points=[];autosize=1;strokeColor=none;fillColor=none;" vertex="1" parent="hwB_FgqObgopXVhRAvoL-88">
          <mxGeometry y="60" width="150" height="30" as="geometry" />
        </mxCell>
        <mxCell id="hwB_FgqObgopXVhRAvoL-91" value="Лог Событий" style="swimlane;whiteSpace=wrap;html=1;" vertex="1" parent="1">
          <mxGeometry x="1280" y="510" width="200" height="100" as="geometry" />
        </mxCell>
        <mxCell id="hwB_FgqObgopXVhRAvoL-92" value="Код События PK" style="text;html=1;align=center;verticalAlign=middle;resizable=0;points=[];autosize=1;strokeColor=none;fillColor=none;" vertex="1" parent="hwB_FgqObgopXVhRAvoL-91">
          <mxGeometry y="30" width="120" height="30" as="geometry" />
        </mxCell>
        <mxCell id="hwB_FgqObgopXVhRAvoL-93" value="Текст События" style="text;html=1;align=center;verticalAlign=middle;resizable=0;points=[];autosize=1;strokeColor=none;fillColor=none;" vertex="1" parent="hwB_FgqObgopXVhRAvoL-91">
          <mxGeometry y="60" width="110" height="30" as="geometry" />
        </mxCell>
        <mxCell id="hwB_FgqObgopXVhRAvoL-94" value="Пароли и Логины" style="swimlane;whiteSpace=wrap;html=1;" vertex="1" parent="1">
          <mxGeometry x="920" y="-320" width="200" height="150" as="geometry" />
        </mxCell>
        <mxCell id="hwB_FgqObgopXVhRAvoL-95" value="Код Записи PK" style="text;html=1;align=center;verticalAlign=middle;resizable=0;points=[];autosize=1;strokeColor=none;fillColor=none;" vertex="1" parent="hwB_FgqObgopXVhRAvoL-94">
          <mxGeometry y="30" width="110" height="30" as="geometry" />
        </mxCell>
        <mxCell id="hwB_FgqObgopXVhRAvoL-96" value="Логин" style="text;html=1;align=center;verticalAlign=middle;resizable=0;points=[];autosize=1;strokeColor=none;fillColor=none;" vertex="1" parent="hwB_FgqObgopXVhRAvoL-94">
          <mxGeometry y="60" width="60" height="30" as="geometry" />
        </mxCell>
        <mxCell id="hwB_FgqObgopXVhRAvoL-97" value="Пароль" style="text;html=1;align=center;verticalAlign=middle;resizable=0;points=[];autosize=1;strokeColor=none;fillColor=none;" vertex="1" parent="hwB_FgqObgopXVhRAvoL-94">
          <mxGeometry y="90" width="70" height="30" as="geometry" />
        </mxCell>
        <mxCell id="hwB_FgqObgopXVhRAvoL-99" value="Код Пользователя FK" style="text;html=1;align=center;verticalAlign=middle;resizable=0;points=[];autosize=1;strokeColor=none;fillColor=none;" vertex="1" parent="hwB_FgqObgopXVhRAvoL-94">
          <mxGeometry y="120" width="140" height="30" as="geometry" />
        </mxCell>
        <mxCell id="hwB_FgqObgopXVhRAvoL-101" value="Роли" style="swimlane;whiteSpace=wrap;html=1;" vertex="1" parent="1">
          <mxGeometry x="1560" y="-20" width="200" height="100" as="geometry" />
        </mxCell>
        <mxCell id="hwB_FgqObgopXVhRAvoL-102" value="Код Роли PK" style="text;html=1;align=center;verticalAlign=middle;resizable=0;points=[];autosize=1;strokeColor=none;fillColor=none;" vertex="1" parent="hwB_FgqObgopXVhRAvoL-101">
          <mxGeometry y="30" width="90" height="30" as="geometry" />
        </mxCell>
        <mxCell id="hwB_FgqObgopXVhRAvoL-103" value="Название Роли" style="text;html=1;align=center;verticalAlign=middle;resizable=0;points=[];autosize=1;strokeColor=none;fillColor=none;" vertex="1" parent="hwB_FgqObgopXVhRAvoL-101">
          <mxGeometry y="60" width="110" height="30" as="geometry" />
        </mxCell>
        <mxCell id="hwB_FgqObgopXVhRAvoL-104" value="" style="endArrow=none;html=1;rounded=0;entryX=0.002;entryY=0.597;entryDx=0;entryDy=0;entryPerimeter=0;" edge="1" parent="1" target="hwB_FgqObgopXVhRAvoL-47">
          <mxGeometry width="50" height="50" relative="1" as="geometry">
            <mxPoint x="760" y="40" as="sourcePoint" />
            <mxPoint x="840" y="240" as="targetPoint" />
            <Array as="points">
              <mxPoint x="840" y="40" />
              <mxPoint x="840" y="160" />
              <mxPoint x="840" y="298" />
            </Array>
          </mxGeometry>
        </mxCell>
        <mxCell id="hwB_FgqObgopXVhRAvoL-106" value="" style="endArrow=none;html=1;rounded=0;entryX=-0.002;entryY=0.467;entryDx=0;entryDy=0;entryPerimeter=0;exitX=0.006;exitY=0.522;exitDx=0;exitDy=0;exitPerimeter=0;" edge="1" parent="1" source="hwB_FgqObgopXVhRAvoL-28" target="hwB_FgqObgopXVhRAvoL-155">
          <mxGeometry width="50" height="50" relative="1" as="geometry">
            <mxPoint x="760" y="40" as="sourcePoint" />
            <mxPoint x="880" y="298" as="targetPoint" />
            <Array as="points">
              <mxPoint x="520" y="46" />
              <mxPoint x="520" y="-56" />
            </Array>
          </mxGeometry>
        </mxCell>
        <mxCell id="hwB_FgqObgopXVhRAvoL-107" value="" style="endArrow=none;html=1;rounded=0;entryX=0.002;entryY=0.516;entryDx=0;entryDy=0;entryPerimeter=0;exitX=1;exitY=0.75;exitDx=0;exitDy=0;" edge="1" parent="1" source="hwB_FgqObgopXVhRAvoL-154" target="hwB_FgqObgopXVhRAvoL-102">
          <mxGeometry width="50" height="50" relative="1" as="geometry">
            <mxPoint x="1119" y="40" as="sourcePoint" />
            <mxPoint x="1280" y="-120" as="targetPoint" />
            <Array as="points">
              <mxPoint x="1520" y="-32" />
              <mxPoint x="1520" y="25" />
            </Array>
          </mxGeometry>
        </mxCell>
        <mxCell id="hwB_FgqObgopXVhRAvoL-108" value="" style="endArrow=none;html=1;rounded=0;entryX=0.015;entryY=0.549;entryDx=0;entryDy=0;entryPerimeter=0;exitX=1;exitY=0.5;exitDx=0;exitDy=0;" edge="1" parent="1" source="hwB_FgqObgopXVhRAvoL-154" target="hwB_FgqObgopXVhRAvoL-75">
          <mxGeometry width="50" height="50" relative="1" as="geometry">
            <mxPoint x="1119" y="-30" as="sourcePoint" />
            <mxPoint x="1280" y="49" as="targetPoint" />
            <Array as="points">
              <mxPoint x="1160" y="-55" />
              <mxPoint x="1160" y="185" />
            </Array>
          </mxGeometry>
        </mxCell>
        <mxCell id="hwB_FgqObgopXVhRAvoL-109" value="" style="endArrow=none;html=1;rounded=0;entryX=0.002;entryY=0.516;entryDx=0;entryDy=0;entryPerimeter=0;" edge="1" parent="1" target="hwB_FgqObgopXVhRAvoL-102">
          <mxGeometry width="50" height="50" relative="1" as="geometry">
            <mxPoint x="1490" y="210" as="sourcePoint" />
            <mxPoint x="1280" y="29" as="targetPoint" />
            <Array as="points">
              <mxPoint x="1520" y="210" />
              <mxPoint x="1520" y="25" />
            </Array>
          </mxGeometry>
        </mxCell>
        <mxCell id="hwB_FgqObgopXVhRAvoL-110" value="" style="endArrow=none;html=1;rounded=0;entryX=0.006;entryY=0.467;entryDx=0;entryDy=0;entryPerimeter=0;" edge="1" parent="1" target="hwB_FgqObgopXVhRAvoL-46">
          <mxGeometry width="50" height="50" relative="1" as="geometry">
            <mxPoint x="710" y="390" as="sourcePoint" />
            <mxPoint x="883" y="605" as="targetPoint" />
            <Array as="points">
              <mxPoint x="751" y="390" />
              <mxPoint x="751" y="264" />
            </Array>
          </mxGeometry>
        </mxCell>
        <mxCell id="hwB_FgqObgopXVhRAvoL-111" value="" style="endArrow=none;html=1;rounded=0;" edge="1" parent="1">
          <mxGeometry width="50" height="50" relative="1" as="geometry">
            <mxPoint x="1080" y="585" as="sourcePoint" />
            <mxPoint x="1080" y="230" as="targetPoint" />
            <Array as="points">
              <mxPoint x="1160" y="585" />
              <mxPoint x="1160" y="230" />
            </Array>
          </mxGeometry>
        </mxCell>
        <mxCell id="hwB_FgqObgopXVhRAvoL-112" value="" style="endArrow=none;html=1;rounded=0;entryX=0.006;entryY=0.467;entryDx=0;entryDy=0;entryPerimeter=0;exitX=-0.01;exitY=0.533;exitDx=0;exitDy=0;exitPerimeter=0;" edge="1" parent="1" source="hwB_FgqObgopXVhRAvoL-67">
          <mxGeometry width="50" height="50" relative="1" as="geometry">
            <mxPoint x="710" y="680" as="sourcePoint" />
            <mxPoint x="881" y="554" as="targetPoint" />
            <Array as="points">
              <mxPoint x="840" y="725" />
              <mxPoint x="840" y="554" />
            </Array>
          </mxGeometry>
        </mxCell>
        <mxCell id="hwB_FgqObgopXVhRAvoL-113" value="" style="endArrow=none;html=1;rounded=0;exitX=-0.01;exitY=0.567;exitDx=0;exitDy=0;exitPerimeter=0;" edge="1" parent="1" source="hwB_FgqObgopXVhRAvoL-75">
          <mxGeometry width="50" height="50" relative="1" as="geometry">
            <mxPoint x="1180" y="310" as="sourcePoint" />
            <mxPoint x="1070" y="850" as="targetPoint" />
            <Array as="points">
              <mxPoint x="1210" y="186" />
              <mxPoint x="1210" y="850" />
            </Array>
          </mxGeometry>
        </mxCell>
        <mxCell id="hwB_FgqObgopXVhRAvoL-115" value="" style="endArrow=none;html=1;rounded=0;entryX=0.006;entryY=0.467;entryDx=0;entryDy=0;entryPerimeter=0;exitX=0.006;exitY=0.6;exitDx=0;exitDy=0;exitPerimeter=0;" edge="1" parent="1" source="hwB_FgqObgopXVhRAvoL-89">
          <mxGeometry width="50" height="50" relative="1" as="geometry">
            <mxPoint x="498" y="600" as="sourcePoint" />
            <mxPoint x="510" y="429" as="targetPoint" />
            <Array as="points">
              <mxPoint x="469" y="785" />
              <mxPoint x="469" y="429" />
            </Array>
          </mxGeometry>
        </mxCell>
        <mxCell id="hwB_FgqObgopXVhRAvoL-116" value="" style="endArrow=none;html=1;rounded=0;entryX=0.006;entryY=0.467;entryDx=0;entryDy=0;entryPerimeter=0;exitX=-0.002;exitY=0.5;exitDx=0;exitDy=0;exitPerimeter=0;" edge="1" parent="1" source="hwB_FgqObgopXVhRAvoL-85">
          <mxGeometry width="50" height="50" relative="1" as="geometry">
            <mxPoint x="510" y="919" as="sourcePoint" />
            <mxPoint x="509" y="460" as="targetPoint" />
            <Array as="points">
              <mxPoint x="490" y="655" />
              <mxPoint x="490" y="460" />
            </Array>
          </mxGeometry>
        </mxCell>
        <mxCell id="hwB_FgqObgopXVhRAvoL-117" value="" style="endArrow=none;html=1;rounded=0;entryX=0.008;entryY=0.6;entryDx=0;entryDy=0;entryPerimeter=0;" edge="1" parent="1" target="hwB_FgqObgopXVhRAvoL-72">
          <mxGeometry width="50" height="50" relative="1" as="geometry">
            <mxPoint x="720" y="655" as="sourcePoint" />
            <mxPoint x="790" y="470" as="targetPoint" />
            <Array as="points">
              <mxPoint x="750" y="655" />
              <mxPoint x="750" y="875" />
            </Array>
          </mxGeometry>
        </mxCell>
        <mxCell id="hwB_FgqObgopXVhRAvoL-118" value="" style="endArrow=none;html=1;rounded=0;entryX=-0.01;entryY=0.367;entryDx=0;entryDy=0;entryPerimeter=0;" edge="1" parent="1" target="hwB_FgqObgopXVhRAvoL-73">
          <mxGeometry width="50" height="50" relative="1" as="geometry">
            <mxPoint x="719" y="780" as="sourcePoint" />
            <mxPoint x="870" y="1003" as="targetPoint" />
            <Array as="points">
              <mxPoint x="740" y="780" />
              <mxPoint x="740" y="900" />
            </Array>
          </mxGeometry>
        </mxCell>
        <mxCell id="hwB_FgqObgopXVhRAvoL-119" value="" style="endArrow=none;html=1;rounded=0;entryX=0.018;entryY=0.567;entryDx=0;entryDy=0;entryPerimeter=0;exitX=0.001;exitY=0.544;exitDx=0;exitDy=0;exitPerimeter=0;" edge="1" parent="1" source="hwB_FgqObgopXVhRAvoL-62" target="hwB_FgqObgopXVhRAvoL-45">
          <mxGeometry width="50" height="50" relative="1" as="geometry">
            <mxPoint x="720" y="400" as="sourcePoint" />
            <mxPoint x="891" y="274" as="targetPoint" />
            <Array as="points">
              <mxPoint x="780" y="586" />
              <mxPoint x="780" y="237" />
            </Array>
          </mxGeometry>
        </mxCell>
        <mxCell id="hwB_FgqObgopXVhRAvoL-120" value="1" style="text;html=1;align=center;verticalAlign=middle;resizable=0;points=[];autosize=1;strokeColor=none;fillColor=none;" vertex="1" parent="1">
          <mxGeometry x="710" y="360" width="30" height="30" as="geometry" />
        </mxCell>
        <mxCell id="hwB_FgqObgopXVhRAvoL-123" value="N" style="text;html=1;align=center;verticalAlign=middle;resizable=0;points=[];autosize=1;strokeColor=none;fillColor=none;" vertex="1" parent="1">
          <mxGeometry x="850" y="240" width="30" height="30" as="geometry" />
        </mxCell>
        <mxCell id="hwB_FgqObgopXVhRAvoL-124" value="1" style="text;html=1;align=center;verticalAlign=middle;resizable=0;points=[];autosize=1;strokeColor=none;fillColor=none;" vertex="1" parent="1">
          <mxGeometry x="760" y="10" width="30" height="30" as="geometry" />
        </mxCell>
        <mxCell id="hwB_FgqObgopXVhRAvoL-125" value="1" style="text;html=1;align=center;verticalAlign=middle;resizable=0;points=[];autosize=1;strokeColor=none;fillColor=none;" vertex="1" parent="1">
          <mxGeometry x="890" y="-80" width="30" height="30" as="geometry" />
        </mxCell>
        <mxCell id="hwB_FgqObgopXVhRAvoL-126" value="N" style="text;html=1;align=center;verticalAlign=middle;resizable=0;points=[];autosize=1;strokeColor=none;fillColor=none;" vertex="1" parent="1">
          <mxGeometry x="850" y="560" width="30" height="30" as="geometry" />
        </mxCell>
        <mxCell id="hwB_FgqObgopXVhRAvoL-127" value="1" style="text;html=1;align=center;verticalAlign=middle;resizable=0;points=[];autosize=1;strokeColor=none;fillColor=none;" vertex="1" parent="1">
          <mxGeometry x="490" y="630" width="30" height="30" as="geometry" />
        </mxCell>
        <mxCell id="hwB_FgqObgopXVhRAvoL-128" value="1" style="text;html=1;align=center;verticalAlign=middle;resizable=0;points=[];autosize=1;strokeColor=none;fillColor=none;" vertex="1" parent="1">
          <mxGeometry x="840" y="700" width="30" height="30" as="geometry" />
        </mxCell>
        <mxCell id="hwB_FgqObgopXVhRAvoL-129" value="N" style="text;html=1;align=center;verticalAlign=middle;resizable=0;points=[];autosize=1;strokeColor=none;fillColor=none;" vertex="1" parent="1">
          <mxGeometry x="850" y="530" width="30" height="30" as="geometry" />
        </mxCell>
        <mxCell id="hwB_FgqObgopXVhRAvoL-130" value="1" style="text;html=1;align=center;verticalAlign=middle;resizable=0;points=[];autosize=1;strokeColor=none;fillColor=none;" vertex="1" parent="1">
          <mxGeometry x="720" y="630" width="30" height="30" as="geometry" />
        </mxCell>
        <mxCell id="hwB_FgqObgopXVhRAvoL-133" value="N" style="text;html=1;align=center;verticalAlign=middle;resizable=0;points=[];autosize=1;strokeColor=none;fillColor=none;" vertex="1" parent="1">
          <mxGeometry x="840" y="850" width="30" height="30" as="geometry" />
        </mxCell>
        <mxCell id="hwB_FgqObgopXVhRAvoL-135" value="N" style="text;html=1;align=center;verticalAlign=middle;resizable=0;points=[];autosize=1;strokeColor=none;fillColor=none;" vertex="1" parent="1">
          <mxGeometry x="840" y="900" width="30" height="30" as="geometry" />
        </mxCell>
        <mxCell id="hwB_FgqObgopXVhRAvoL-136" value="1" style="text;html=1;align=center;verticalAlign=middle;resizable=0;points=[];autosize=1;strokeColor=none;fillColor=none;" vertex="1" parent="1">
          <mxGeometry x="720" y="750" width="30" height="30" as="geometry" />
        </mxCell>
        <mxCell id="hwB_FgqObgopXVhRAvoL-137" value="1" style="text;html=1;align=center;verticalAlign=middle;resizable=0;points=[];autosize=1;strokeColor=none;fillColor=none;" vertex="1" parent="1">
          <mxGeometry x="490" y="760" width="30" height="30" as="geometry" />
        </mxCell>
        <mxCell id="hwB_FgqObgopXVhRAvoL-138" value="N" style="text;html=1;align=center;verticalAlign=middle;resizable=0;points=[];autosize=1;strokeColor=none;fillColor=none;" vertex="1" parent="1">
          <mxGeometry x="480" y="400" width="30" height="30" as="geometry" />
        </mxCell>
        <mxCell id="hwB_FgqObgopXVhRAvoL-139" value="N" style="text;html=1;align=center;verticalAlign=middle;resizable=0;points=[];autosize=1;strokeColor=none;fillColor=none;" vertex="1" parent="1">
          <mxGeometry x="480" y="430" width="30" height="30" as="geometry" />
        </mxCell>
        <mxCell id="hwB_FgqObgopXVhRAvoL-140" value="N" style="text;html=1;align=center;verticalAlign=middle;resizable=0;points=[];autosize=1;strokeColor=none;fillColor=none;" vertex="1" parent="1">
          <mxGeometry x="850" y="270" width="30" height="30" as="geometry" />
        </mxCell>
        <mxCell id="hwB_FgqObgopXVhRAvoL-143" value="1" style="text;html=1;align=center;verticalAlign=middle;resizable=0;points=[];autosize=1;strokeColor=none;fillColor=none;" vertex="1" parent="1">
          <mxGeometry x="850" y="210" width="30" height="30" as="geometry" />
        </mxCell>
        <mxCell id="hwB_FgqObgopXVhRAvoL-144" value="1" style="text;html=1;align=center;verticalAlign=middle;resizable=0;points=[];autosize=1;strokeColor=none;fillColor=none;" vertex="1" parent="1">
          <mxGeometry x="1080" y="200" width="30" height="30" as="geometry" />
        </mxCell>
        <mxCell id="hwB_FgqObgopXVhRAvoL-145" value="N" style="text;html=1;align=center;verticalAlign=middle;resizable=0;points=[];autosize=1;strokeColor=none;fillColor=none;" vertex="1" parent="1">
          <mxGeometry x="1080" y="560" width="30" height="30" as="geometry" />
        </mxCell>
        <mxCell id="hwB_FgqObgopXVhRAvoL-146" value="1" style="text;html=1;align=center;verticalAlign=middle;resizable=0;points=[];autosize=1;strokeColor=none;fillColor=none;" vertex="1" parent="1">
          <mxGeometry x="1120" y="-80" width="30" height="30" as="geometry" />
        </mxCell>
        <mxCell id="hwB_FgqObgopXVhRAvoL-147" value="1" style="text;html=1;align=center;verticalAlign=middle;resizable=0;points=[];autosize=1;strokeColor=none;fillColor=none;" vertex="1" parent="1">
          <mxGeometry x="1260" y="160" width="30" height="30" as="geometry" />
        </mxCell>
        <mxCell id="hwB_FgqObgopXVhRAvoL-148" value="N" style="text;html=1;align=center;verticalAlign=middle;resizable=0;points=[];autosize=1;strokeColor=none;fillColor=none;" vertex="1" parent="1">
          <mxGeometry x="1070" y="820" width="30" height="30" as="geometry" />
        </mxCell>
        <mxCell id="hwB_FgqObgopXVhRAvoL-149" value="N" style="text;html=1;align=center;verticalAlign=middle;resizable=0;points=[];autosize=1;strokeColor=none;fillColor=none;" vertex="1" parent="1">
          <mxGeometry x="1120" y="-40" width="30" height="30" as="geometry" />
        </mxCell>
        <mxCell id="hwB_FgqObgopXVhRAvoL-150" value="1" style="text;html=1;align=center;verticalAlign=middle;resizable=0;points=[];autosize=1;strokeColor=none;fillColor=none;" vertex="1" parent="1">
          <mxGeometry x="1530" width="30" height="30" as="geometry" />
        </mxCell>
        <mxCell id="hwB_FgqObgopXVhRAvoL-153" value="N" style="text;html=1;align=center;verticalAlign=middle;resizable=0;points=[];autosize=1;strokeColor=none;fillColor=none;" vertex="1" parent="1">
          <mxGeometry x="1490" y="180" width="30" height="30" as="geometry" />
        </mxCell>
        <mxCell id="hwB_FgqObgopXVhRAvoL-154" value="Пользователи" style="swimlane;whiteSpace=wrap;html=1;" vertex="1" parent="1">
          <mxGeometry x="920" y="-100" width="200" height="90" as="geometry" />
        </mxCell>
        <mxCell id="hwB_FgqObgopXVhRAvoL-155" value="Код пользователя PK" style="text;html=1;align=center;verticalAlign=middle;resizable=0;points=[];autosize=1;strokeColor=none;fillColor=none;" vertex="1" parent="hwB_FgqObgopXVhRAvoL-154">
          <mxGeometry y="30" width="140" height="30" as="geometry" />
        </mxCell>
        <mxCell id="hwB_FgqObgopXVhRAvoL-156" value="Роль FK" style="text;html=1;align=center;verticalAlign=middle;resizable=0;points=[];autosize=1;strokeColor=none;fillColor=none;" vertex="1" parent="hwB_FgqObgopXVhRAvoL-154">
          <mxGeometry y="60" width="70" height="30" as="geometry" />
        </mxCell>
        <mxCell id="hwB_FgqObgopXVhRAvoL-159" value="" style="endArrow=none;html=1;rounded=0;entryX=0.07;entryY=1.035;entryDx=0;entryDy=0;entryPerimeter=0;exitX=0.049;exitY=0.018;exitDx=0;exitDy=0;exitPerimeter=0;" edge="1" parent="1" source="hwB_FgqObgopXVhRAvoL-154" target="hwB_FgqObgopXVhRAvoL-99">
          <mxGeometry width="50" height="50" relative="1" as="geometry">
            <mxPoint x="760" y="-94" as="sourcePoint" />
            <mxPoint x="920" y="-190" as="targetPoint" />
            <Array as="points">
              <mxPoint x="930" y="-140" />
            </Array>
          </mxGeometry>
        </mxCell>
        <mxCell id="hwB_FgqObgopXVhRAvoL-162" value="1" style="text;html=1;align=center;verticalAlign=middle;resizable=0;points=[];autosize=1;strokeColor=none;fillColor=none;" vertex="1" parent="1">
          <mxGeometry x="900" y="-170" width="30" height="30" as="geometry" />
        </mxCell>
        <mxCell id="hwB_FgqObgopXVhRAvoL-163" value="1" style="text;html=1;align=center;verticalAlign=middle;resizable=0;points=[];autosize=1;strokeColor=none;fillColor=none;" vertex="1" parent="1">
          <mxGeometry x="930" y="-130" width="30" height="30" as="geometry" />
        </mxCell>
        <mxCell id="hwB_FgqObgopXVhRAvoL-165" value="1" style="text;html=1;align=center;verticalAlign=middle;resizable=0;points=[];autosize=1;strokeColor=none;fillColor=none;" vertex="1" parent="1">
          <mxGeometry x="530" y="40" width="30" height="30" as="geometry" />
        </mxCell>
      </root>
    </mxGraphModel>
  </diagram>
</mxfile>
